<svg xmlns="http://www.w3.org/2000/svg" viewBox="0 0 128 128" fill="none">
  <defs>
    <linearGradient id="bg-gradient" x1="0" y1="0" x2="128" y2="128">
      <stop offset="0%" stop-color="#00ADD8"/>
      <stop offset="100%" stop-color="#007D9C"/>
    </linearGradient>
    <linearGradient id="node-gradient" x1="0" y1="0" x2="1" y2="1">
      <stop offset="0%" stop-color="#4FD1C5"/>
      <stop offset="100%" stop-color="#38B2AC"/>
    </linearGradient>
  </defs>

  <!-- Background -->
  <rect width="128" height="128" rx="24" fill="url(#bg-gradient)"/>

  <!-- Graph edges -->
  <g stroke="#FFFFFF" stroke-width="2" stroke-opacity="0.4">
    <line x1="32" y1="48" x2="64" y2="32"/>
    <line x1="32" y1="48" x2="64" y2="64"/>
    <line x1="96" y1="48" x2="64" y2="32"/>
    <line x1="96" y1="48" x2="64" y2="64"/>
    <line x1="64" y1="64" x2="64" y2="96"/>
    <line x1="64" y1="32" x2="64" y2="16"/>
    <line x1="32" y1="48" x2="16" y2="64"/>
    <line x1="96" y1="48" x2="112" y2="64"/>
  </g>

  <!-- Graph nodes -->
  <g>
    <!-- Center node -->
    <circle cx="64" cy="64" r="14" fill="#FFFFFF"/>
    <circle cx="64" cy="64" r="10" fill="url(#node-gradient)"/>

    <!-- Top node -->
    <circle cx="64" cy="32" r="10" fill="#FFFFFF"/>
    <circle cx="64" cy="32" r="7" fill="url(#node-gradient)"/>

    <!-- Left node -->
    <circle cx="32" cy="48" r="10" fill="#FFFFFF"/>
    <circle cx="32" cy="48" r="7" fill="url(#node-gradient)"/>

    <!-- Right node -->
    <circle cx="96" cy="48" r="10" fill="#FFFFFF"/>
    <circle cx="96" cy="48" r="7" fill="url(#node-gradient)"/>

    <!-- Bottom node -->
    <circle cx="64" cy="96" r="8" fill="#FFFFFF"/>
    <circle cx="64" cy="96" r="5" fill="url(#node-gradient)"/>

    <!-- Small satellite nodes -->
    <circle cx="64" cy="16" r="5" fill="#FFFFFF"/>
    <circle cx="16" cy="64" r="5" fill="#FFFFFF"/>
    <circle cx="112" cy="64" r="5" fill="#FFFFFF"/>
  </g>

  <!-- Go-style brackets -->
  <g fill="#FFFFFF" fill-opacity="0.9">
    <path d="M 44 82 L 44 78 L 48 78 L 48 82 L 52 82 L 52 78 L 56 78 L 56 82 Z" transform="translate(0, 8)"/>
    <path d="M 72 82 L 72 78 L 76 78 L 76 82 L 80 82 L 80 78 L 84 78 L 84 82 Z" transform="translate(0, 8)"/>
  </g>

  <!-- { } symbol representing Go/mod -->
  <g fill="#FFFFFF" font-family="monospace" font-size="20" font-weight="bold" text-anchor="middle">
    <text x="64" y="69" style="text-shadow: 0 0 4px rgba(0,0,0,0.2);">{ }</text>
  </g>
</svg>
